<svg xmlns="http://www.w3.org/2000/svg" xmlns:xlink="http://www.w3.org/1999/xlink" width="524" height="718" viewBox="0 0 524 718">
  <defs>
    <clipPath id="clip-path">
      <rect id="Rectangle_14306" data-name="Rectangle 14306" width="524" height="718" transform="translate(980.039 774.818)" fill="#fff"/>
    </clipPath>
    <clipPath id="clip-path-2">
      <rect id="Rectangle_14235" data-name="Rectangle 14235" width="1022.514" height="891.368" fill="#0a9ce8"/>
    </clipPath>
  </defs>
  <g id="Mask_Group_265" data-name="Mask Group 265" transform="translate(-980.039 -774.818)" clip-path="url(#clip-path)">
    <g id="Group_29736" data-name="Group 29736" transform="translate(769.102 860.7) rotate(-6)">
      <g id="Group_29736-2" data-name="Group 29736" clip-path="url(#clip-path-2)">
        <path id="Path_31091" data-name="Path 31091" d="M334.189,1.369c-91.76,0-174.963,33.145-235.227,86.657S1.369,215.423,1.369,296.9c0,51.949,15.395,103.019,44.527,147.737L273.2,242.756,500.5,40.868c-50.347-25.84-107.831-39.5-166.309-39.5M45.617,446.719l-.433-.663C15.625,400.955,0,349.378,0,296.9,0,215.045,37.48,140.819,97.993,87.057S242.052,0,334.189,0c59.037,0,117.068,13.869,167.826,40.112l.885.457-.748.663L273.884,243.974Z" transform="translate(411.359 0)" fill="#0a9ce8"/>
        <path id="Path_31092" data-name="Path 31092" d="M2.4,405.852c50.349,25.846,107.831,39.5,166.306,39.5,91.759,0,174.966-33.145,235.232-86.657s97.59-127.4,97.59-208.877c0-51.949-15.395-103.019-44.524-147.742L229.7,203.964Zm166.306,40.871c-59.037,0-117.066-13.869-167.82-40.112L0,406.153l.748-.66L229.015,202.745,457.283,0l.433.663c29.559,45.1,45.184,96.681,45.184,149.156,0,81.856-37.477,156.082-97.993,209.844s-144.062,87.06-236.2,87.06" transform="translate(0 444.646)" fill="#0a9ce8"/>
        <path id="Path_31093" data-name="Path 31093" d="M85.8,84.44c-41.41,36.771-64.843,86.9-78.679,139.189-5.524,20.886-5.738,44-5.738,66.363,0,32.41,10.235,66.464,22.266,96.728A328.752,328.752,0,0,0,50,432.5c.082-.37,99.1-88.8,98.82-89.2-.241-.345,118.835-106.771,118.364-107.1-.63-.441,217.11-194.981,216.146-195.359C433.239,15.344,375.854,1.68,317.335,1.371,227.257,1.122,145.406,32.9,85.8,84.44m-1.137-.972c1.1-.972,2.3-1.945,3.41-2.906C147.669,30.484,228.528-.253,317.34,0c59.07.309,116.986,14.181,167.472,40.074l.863.444-.707.641c.97.383-217.693,195.753-217.061,196.2.46.323-116.74,105.073-116.5,105.415.285.411-101.54,91.351-102.046,91.1A329.636,329.636,0,0,1,22.5,387.441c-.033-.077-.077-.151-.1-.227s-.071-.159-.1-.236C10.281,356.643,0,322.5,0,290.02c0-22.5.189-45.77,5.754-66.776,13.9-52.5,37.351-102.857,78.906-139.775" transform="translate(428.915 20.022)" fill="#0a9ce8"/>
        <path id="Path_31094" data-name="Path 31094" d="M2.347,393.029c50.092,25.506,107.472,39.17,165.994,39.479,90.075.249,171.931-31.531,231.54-83.069,41.41-36.771,64.843-86.9,78.676-139.192,5.524-20.883,5.738-44,5.738-66.357,0-32.413-10.238-66.47-22.266-96.733A329.02,329.02,0,0,0,435.677,1.373c-.082.372-99.1,88.8-98.823,89.2.244.345-118.832,106.771-118.364,107.1.633.441-217.1,194.981-216.143,195.359M.863,393.8,0,393.361l.707-.641c-.97-.381,217.7-195.753,217.061-196.2-.46-.323,116.737-105.073,116.5-105.415C333.978,90.692,435.808-.251,436.309,0a329.423,329.423,0,0,1,26.862,46.438c.033.077.074.151.1.227s.071.159.1.236c12.018,30.335,22.3,64.479,22.3,96.96,0,22.493-.189,45.765-5.751,66.774-13.9,52.5-37.351,102.854-78.909,139.775-1.1.972-2.3,1.945-3.41,2.9a330.053,330.053,0,0,1-49.933,34.577c-51.749,29.253-113.346,46.176-179.334,45.987C109.266,433.569,51.349,419.7.863,393.8" transform="translate(12.338 442.786)" fill="#0a9ce8"/>
        <path id="Path_31095" data-name="Path 31095" d="M73.3,80.866c-39.753,35.3-55.265,86.909-68.546,137.108-5.305,20.05-2.689,43.65-2.689,65.114,0,31.115,13.99,65.889,25.539,94.942A414.156,414.156,0,0,0,54.772,420.38c.164-.745,95.117-86.038,94.559-86.838-.485-.69,113.45-103.213,112.514-103.87C260.579,228.79,468.755,41.6,466.827,40.842,417,15.673,359.714,2,301.145,1.382,212.755.883,132.251,31.3,73.3,80.866M72,79.889c1.052-.934,2.311-1.873,3.377-2.794C134.347,28.923,213.94-.7,301.159.013c59.1.485,116.9,14.494,167.122,40.038l.838.433-.665.619c1.939.764-207.119,188.761-205.854,189.657.92.649-111.216,101.559-110.739,102.241.578.824-97.073,88.547-97.642,88.708a412.143,412.143,0,0,1-27.705-42.933c-.03-.074-.082-.14-.112-.214s-.077-.159-.107-.233C14.759,349.21.676,314.324.676,283.146c0-21.6-2.687-45.37,2.654-65.539C16.676,167.211,32.109,115.331,72,79.889" transform="translate(445.803 40.034)" fill="#0a9ce8"/>
        <path id="Path_31096" data-name="Path 31096" d="M2.292,380.866c49.832,25.172,107.11,38.984,165.681,39.46,88.391.717,168.894-29.921,227.846-79.484,39.756-35.3,55.265-86.906,68.548-137.108,5.3-20.051,2.689-43.65,2.689-65.114,0-31.115-13.992-65.889-25.542-94.942A414.164,414.164,0,0,0,414.347,1.328c-.164.742-95.117,86.041-94.558,86.838.482.69-113.45,103.213-112.511,103.868C208.54,192.918.367,380.113,2.292,380.866m-1.454.792L0,381.227l.668-.619c-1.942-.764,207.119-188.764,205.851-189.657C205.6,190.3,317.735,89.393,317.258,88.708,316.683,87.884,414.331.162,414.9,0a412.143,412.143,0,0,1,27.705,42.933c.03.074.082.14.112.214s.079.159.107.233c11.538,29.121,25.621,64,25.621,95.186,0,21.6,2.684,45.368-2.657,65.536-13.346,50.4-28.776,102.276-68.672,137.719-1.052.934-2.309,1.873-3.377,2.793A327.169,327.169,0,0,1,344.4,377.842c-51.048,28.083-111.64,44.228-176.442,43.853-59.1-.622-116.9-14.494-167.122-40.038" transform="translate(24.679 440.264)" fill="#0a9ce8"/>
        <path id="Path_31097" data-name="Path 31097" d="M62.062,77.295c-38.1,33.826-45.688,86.917-58.415,135.029C-1.437,231.536,4,255.618,4,276.189c0,29.82,17.747,65.306,28.815,93.148C41.94,383.2,51.356,396.185,60.8,408.252c.244-1.115,91.132-83.278,90.294-84.472-.723-1.038,108.069-99.658,106.661-100.644-1.9-1.326,196.714-181.172,193.825-182.3C402.016,16,344.833,2.324,286.216,1.4c-86.706-.75-165.859,28.308-224.154,75.9M60.6,76.309c1.008-.893,2.322-1.8,3.344-2.684C122.284,27.362,200.613-1.031,286.237.029c59.135.731,116.822,14.806,166.771,40,.011,0,.805.414.816.416s-.641.6-.63.6c2.909,1.145-196.544,181.769-194.644,183.108,1.38.975-105.7,98.048-104.979,99.075.865,1.232-92.606,85.74-93.241,86.309-9.646-12.2-19.251-25.355-28.549-39.427-.03-.071-.09-.129-.118-.2s-.088-.156-.115-.225C20.493,341.774,2.606,306.151,2.606,276.271c0-20.694-5.557-44.971-.441-64.3,12.79-48.3,20.2-101.7,58.434-135.667" transform="translate(461.431 60.043)" fill="#0a9ce8"/>
        <path id="Path_31098" data-name="Path 31098" d="M2.24,368.706c49.572,24.832,106.749,38.721,165.369,39.438,86.7,1.06,165.859-28.311,224.154-75.9,38.1-33.829,45.688-86.92,58.415-135.029,5.083-19.212-.356-43.3-.356-63.865,0-29.82-17.747-65.311-28.815-93.153-9.123-13.864-18.539-26.848-27.987-38.915-.244,1.115-91.135,83.28-90.3,84.477.726,1.035-108.066,99.655-106.658,100.639C197.961,187.726-.649,367.572,2.24,368.706m-1.424.805c-.011-.006-.805-.414-.816-.416s.641-.594.63-.6c-2.909-1.148,196.545-181.772,194.644-183.114-1.378-.972,105.7-98.045,104.977-99.072C299.388,85.08,392.859.572,393.495,0c9.646,12.2,19.251,25.355,28.549,39.427.03.071.09.129.118.2s.088.159.115.23c11.056,27.905,28.943,63.531,28.943,93.411,0,20.7,5.56,44.968.441,64.3-12.79,48.3-20.2,101.7-58.434,135.665-1.008.9-2.322,1.8-3.344,2.684A325.045,325.045,0,0,1,341.138,367.8c-50.349,26.914-109.934,42.281-173.55,41.714-59.133-.931-116.819-14.806-166.771-40" transform="translate(37.014 437.742)" fill="#0a9ce8"/>
        <path id="Path_31099" data-name="Path 31099" d="M51.351,73.726c-36.439,32.358-36.111,86.931-48.284,132.95-4.864,18.377,3.4,42.944,3.4,62.619,0,28.522,21.5,64.731,32.087,91.362,9.906,12.806,19.618,24.624,28.806,35.478.326-1.484,87.147-80.52,86.033-82.114-.967-1.383,102.682-96.1,100.806-97.412C251.675,214.847,440.724,42.346,436.87,40.837,387.559,16.341,330.478,2.658,271.813,1.418,186.789.423,108.989,28.118,51.351,73.726m-1.627-.986c.964-.857,2.333-1.728,3.311-2.574C110.75,25.812,187.81-1.34,271.844.051c59.168.98,116.737,15.115,166.421,39.964.014.005.778.4.792.4s-.6.572-.589.578c3.878,1.528-185.97,174.777-183.437,176.565,1.838,1.3-100.176,94.531-99.22,95.9,1.153,1.646-88.136,82.935-88.843,83.921-9.38-10.961-19.289-22.926-29.39-35.922-.027-.069-.1-.121-.126-.189s-.093-.156-.12-.225C26.757,334.353,5.063,297.99,5.063,269.408c0-19.8-8.43-44.571-3.536-63.057,12.234-46.2,11.626-101.121,48.2-133.611" transform="translate(476.531 80.044)" fill="#0a9ce8"/>
        <path id="Path_31100" data-name="Path 31100" d="M2.183,356.546C51.5,381.041,108.573,395,167.24,395.962c85.019,1.4,162.828-26.7,220.462-72.309,36.442-32.359,36.113-86.931,48.287-132.948,4.861-18.377-3.4-42.944-3.4-62.619,0-28.521-21.5-64.731-32.09-91.362-9.9-12.806-19.615-24.624-28.8-35.481-.326,1.487-87.15,80.522-86.036,82.116.967,1.383-102.679,96.1-100.806,97.41C187.378,182.536-1.67,355.037,2.183,356.546m-1.391.822c-.014-.005-.778-.4-.792-.4s.6-.572.589-.578c-3.878-1.525,185.97-174.777,183.437-176.565-1.838-1.3,100.176-94.531,99.217-95.9C282.093,82.278,371.382.986,372.088,0c9.38,10.963,19.289,22.926,29.39,35.924.027.069.1.121.123.189s.1.156.123.222c10.574,26.695,32.268,63.057,32.268,91.642,0,19.8,8.43,44.568,3.536,63.055-12.234,46.2-11.629,101.121-48.2,133.61-.964.855-2.333,1.728-3.311,2.572a322.63,322.63,0,0,1-48.148,30.537c-49.654,25.744-108.228,40.334-170.66,39.58C108.047,396.088,50.476,382.213.792,357.367" transform="translate(49.355 435.217)" fill="#0a9ce8"/>
        <path id="Path_31101" data-name="Path 31101" d="M40.882,70.168C6.1,101.056,14.349,157.11,2.729,201.037c-4.642,17.542,6.452,42.591,6.452,61.373,0,27.226,25.257,64.15,35.363,89.571,10.689,11.752,20.694,22.4,29.622,32.046.405-1.86,83.165-77.762,81.768-79.755-1.208-1.728,97.3-92.543,94.956-94.181C247.73,207.884,427.215,42.729,422.4,40.844,373.343,16.686,316.363,3,257.653,1.447,174.312.2,97.862,26.534,40.882,70.168m-1.791-.991c.92-.819,2.344-1.657,3.278-2.462C99.456,24.267,175.251-1.639,257.688.081c59.207,1.232,116.658,15.427,166.073,39.926l.767.392c.019.005-.567.548-.548.556,4.848,1.909-175.4,167.785-172.23,170.02,2.3,1.624-94.657,91.015-93.458,92.726,1.438,2.057-83.672,80.128-84.444,81.525-9.117-9.72-19.33-20.491-30.233-32.416-.027-.066-.107-.11-.131-.175s-.1-.156-.129-.219C33.26,326.933,7.762,289.831,7.762,262.55c0-18.9-11.3-44.171-6.631-61.817,11.678-44.1,3.051-100.543,37.959-131.556" transform="translate(491.391 100.04)" fill="#0a9ce8"/>
        <path id="Path_31102" data-name="Path 31102" d="M2.131,344.383c49.057,24.159,106.028,38.184,164.745,39.4,83.332,1.723,159.79-25.087,216.77-68.721,34.785-30.888,26.536-86.942,38.156-130.869,4.642-17.542-6.452-42.59-6.452-61.37,0-27.226-25.26-64.153-35.363-89.574C369.3,21.494,359.293,10.843,350.365,1.2c-.408,1.857-83.168,77.762-81.771,79.755,1.208,1.728-97.3,92.543-94.953,94.181C176.8,177.343-2.686,342.5,2.131,344.383m-1.361.838c-.019-.008-.75-.384-.77-.392s.567-.545.55-.553c-4.848-1.909,175.4-167.785,172.23-170.022-2.3-1.624,94.654-91.014,93.458-92.726C264.8,79.471,349.907,1.4,350.682,0c9.117,9.72,19.33,20.494,30.233,32.419.025.066.1.11.132.175s.1.153.129.219c10.1,25.481,35.59,62.583,35.59,89.867,0,18.895,11.306,44.168,6.631,61.814-11.675,44.1-3.051,100.543-37.956,131.556-.92.816-2.344,1.657-3.278,2.462a320.629,320.629,0,0,1-47.553,29.19c-48.955,24.575-106.521,38.389-167.768,37.444-59.2-1.553-116.655-15.427-166.07-39.926" transform="translate(61.693 432.694)" fill="#0a9ce8"/>
        <path id="Path_31103" data-name="Path 31103" d="M30.545,66.62C-2.583,96.037,13.583,153.573,2.516,195.407c-4.418,16.706,9.5,42.24,9.5,60.127,0,25.928,29.012,63.572,38.636,87.783,11.473,10.692,21.773,20.176,30.439,28.609.49-2.229,79.183-75,77.51-77.395-1.452-2.073,91.913-88.985,89.1-90.949-3.79-2.651,166.131-160.459,160.352-162.721C359.259,17.04,302.378,3.343,243.62,1.486,161.964-.009,86.864,24.96,30.545,66.62m-1.958-1c.876-.778,2.355-1.586,3.245-2.353C88.291,22.734,162.819-1.918,243.664.117c59.239,1.493,116.573,15.74,165.72,39.89.022.008.726.37.745.378s-.531.526-.509.534C415.436,43.211,244.8,201.712,248.6,204.4c2.761,1.947-89.133,87.5-87.7,89.552,1.725,2.468-79.2,77.323-80.046,79.134C72,364.6,61.487,355.019,49.782,344.168c-.025-.063-.115-.1-.14-.162s-.11-.153-.134-.216c-9.616-24.265-38.915-62.107-38.915-88.092,0-18-14.179-43.768-9.728-60.576,11.122-42-5.524-99.965,27.722-129.5" transform="translate(506.121 120.024)" fill="#0a9ce8"/>
        <path id="Path_31104" data-name="Path 31104" d="M2.077,332.223c48.8,23.822,105.664,37.907,164.433,39.375,81.645,2.038,156.756-23.477,213.081-65.136,33.125-29.414,16.958-86.953,28.026-128.788,4.42-16.706-9.5-42.237-9.5-60.124,0-25.931-29.014-63.572-38.639-87.786C348,19.073,337.706,9.588,329.036,1.156c-.488,2.229-79.183,75-77.51,77.395,1.452,2.073-91.91,88.985-89.1,90.952C166.219,172.15-3.7,329.958,2.077,332.223m-1.331.852c-.022-.008-.723-.37-.745-.378s.534-.523.509-.531c-5.817-2.292,164.821-160.8,161.023-163.477-2.755-1.95,89.133-87.5,87.7-89.555C247.5,76.666,328.436,1.81,329.274,0c8.857,8.479,19.371,18.062,31.077,28.913.027.063.112.1.14.162s.112.153.134.216c9.613,24.265,38.915,62.11,38.915,88.092,0,18,14.176,43.768,9.725,60.576-11.122,42,5.524,99.965-27.722,129.5-.876.781-2.355,1.586-3.24,2.353a319.8,319.8,0,0,1-46.959,27.845c-48.26,23.4-104.815,36.439-164.876,35.308C107.24,371.1,49.9,357.225.746,333.075" transform="translate(74.031 430.172)" fill="#0a9ce8"/>
        <path id="Path_31105" data-name="Path 31105" d="M20.28,63.076C-11.191,91.02,12.9,150.04,2.382,189.782c-4.2,15.871,12.552,41.887,12.552,58.881,0,24.632,32.767,62.992,41.909,85.992C69.1,344.292,79.692,352.61,88.1,359.829c.57-2.6,75.2-72.24,73.248-75.034-1.693-2.418,86.528-85.427,83.245-87.72C240.17,193.983,400.53,43.524,393.787,40.884,345.248,17.4,288.471,3.7,229.664,1.528,149.692-.214,75.943,23.391,20.28,63.076m-2.123-1c.833-.739,2.366-1.512,3.213-2.243C77.2,21.2,150.464-2.183,229.713.161c59.278,1.756,116.493,16.052,165.372,39.854.025.008.7.353.723.364s-.5.5-.471.512c6.787,2.673-154.247,153.8-149.816,156.931,3.221,2.273-83.612,83.984-81.936,86.381,2.013,2.878-74.735,74.516-75.645,76.74-8.589-7.241-19.407-15.633-31.92-25.41-.022-.058-.12-.088-.145-.148s-.118-.153-.14-.211C46.6,312.123,13.5,273.539,13.5,248.854c0-17.1-17.049-43.368-12.823-59.335,10.566-39.9-14.1-99.387,17.484-127.446" transform="translate(520.776 140.006)" fill="#0a9ce8"/>
        <path id="Path_31106" data-name="Path 31106" d="M2.022,320.06c48.539,23.485,105.3,37.628,164.123,39.353,79.958,2.347,153.721-21.864,209.384-61.545,31.474-27.946,7.384-86.964,17.9-126.709,4.2-15.871-12.549-41.884-12.549-58.875,0-24.635-32.769-62.994-41.911-86-12.256-9.638-22.85-17.953-31.257-25.175-.57,2.6-75.2,72.243-73.248,75.034,1.693,2.421-86.528,85.427-83.245,87.72C155.639,166.958-4.721,317.42,2.022,320.06m-1.3.868c-.025-.011-.7-.353-.723-.364s.5-.5.471-.512c-6.787-2.673,154.25-153.8,149.816-156.931-3.218-2.273,83.612-83.987,81.936-86.38C230.21,73.859,306.959,2.221,307.868,0c8.591,7.239,19.41,15.63,31.92,25.407.022.06.12.09.145.148s.118.153.14.214c9.134,23.052,42.24,61.636,42.24,86.32,0,17.1,17.052,43.368,12.823,59.333-10.566,39.9,14.1,99.387-17.484,127.446-.833.742-2.366,1.515-3.213,2.243a318.241,318.241,0,0,1-46.359,26.5C280.521,349.841,224.968,362.1,166.1,360.78,106.832,358.605,49.605,344.731.724,320.928" transform="translate(86.369 427.65)" fill="#0a9ce8"/>
        <path id="Path_31107" data-name="Path 31107" d="M15.24,59.538c-29.814,26.476,2.194,86.978-7.767,124.627C3.5,199.2,23.073,225.7,23.073,241.8c0,23.337,36.521,62.416,45.181,84.2,13.042,8.583,23.929,15.731,32.076,21.74.652-2.971,71.216-69.482,68.984-72.67-1.934-2.766,81.144-81.87,77.395-84.491-5.056-3.533,145.74-146.65,138.034-149.665C336.464,17.766,279.785,4.059,220.932,1.58,142.644-.414,70.245,21.831,15.24,59.538m-2.287-1.005c.789-.7,2.377-1.441,3.18-2.131C71.338,19.681,143.334-2.432,220.989.214,280.3,2.235,337.4,16.575,386.011,40.03c.027.011.668.34.7.351s-.46.482-.433.493C394.035,43.927,242.6,187.679,247.67,191.259c3.678,2.6-78.093,80.47-76.176,83.206,2.3,3.292-70.266,71.715-71.246,74.346-8.323-6-19.445-13.2-32.761-21.9-.022-.055-.129-.077-.151-.134s-.129-.151-.151-.205c-8.652-21.842-45.562-61.162-45.562-84.548,0-16.194-19.922-42.968-15.918-58.095,10.01-37.8-22.674-98.809,7.247-125.391" transform="translate(530.207 159.977)" fill="#0a9ce8"/>
        <path id="Path_31108" data-name="Path 31108" d="M1.968,307.9c48.282,23.148,104.938,37.346,163.808,39.334,78.271,2.643,150.687-20.253,205.695-57.958,29.817-26.476-2.194-86.978,7.767-124.627,3.977-15.036-15.6-41.533-15.6-57.632,0-23.337-36.524-62.416-45.184-84.206-13.042-8.581-23.929-15.731-32.076-21.74-.652,2.974-71.216,69.485-68.984,72.673,1.934,2.766-81.144,81.87-77.395,84.491C145.057,161.765-5.739,304.882,1.968,307.9M.7,308.782c-.027-.011-.671-.34-.7-.351s.46-.479.43-.49c-7.756-3.056,143.675-146.809,138.609-150.388-3.678-2.6,78.09-80.47,76.176-83.206C212.915,71.054,285.481,2.632,286.462,0c8.326,6,19.445,13.2,32.758,21.9.022.055.131.077.153.134s.126.151.148.205c8.654,21.842,45.565,61.162,45.565,84.548,0,16.2,19.922,42.968,15.918,58.095-10.01,37.8,22.674,98.809-7.247,125.391-.789.7-2.38,1.441-3.18,2.131a317.625,317.625,0,0,1-45.765,25.15c-46.86,21.064-101.4,32.548-159.092,31.038C106.424,346.111,49.313,332.234.7,308.782" transform="translate(98.709 425.127)" fill="#0a9ce8"/>
        <path id="Path_31109" data-name="Path 31109" d="M12.605,56.011c-28.16,25,11.768,86.989,2.361,122.546-3.755,14.2,18.646,41.183,18.646,56.386,0,22.042,40.279,61.836,48.46,82.415,13.825,7.526,25.008,13.508,32.9,18.306.731-3.344,67.231-66.725,64.72-70.312-2.175-3.111,75.762-78.312,71.539-81.262C245.542,180.116,386.775,44.347,378.1,40.954,330.082,18.143,273.5,4.43,214.605,1.639,138-.6,66.956,20.279,12.605,56.011M10.154,55c.745-.663,2.391-1.369,3.147-2.021C67.876,18.167,138.61-2.664,214.665.275,274.017,2.567,331,16.948,379.339,40.053c.03.014.641.326.676.337s-.427.46-.392.471c8.723,3.437-133.1,139.817-127.4,143.842,4.136,2.922-72.574,76.954-70.416,80.035,2.585,3.7-65.8,68.907-66.848,71.953-8.063-4.76-19.484-10.769-33.6-18.4-.019-.052-.137-.066-.162-.121s-.134-.151-.153-.2C72.874,297.34,32.16,257.28,32.16,235.192c0-15.3-22.8-42.569-19.018-56.854C22.6,142.638-18.1,80.107,10.154,55" transform="translate(537.234 179.941)" fill="#0a9ce8"/>
        <path id="Path_31110" data-name="Path 31110" d="M1.913,295.737c48.021,22.811,104.574,37.058,163.5,39.315,76.584,2.933,147.652-18.643,202-54.373,28.157-25-11.771-86.989-2.364-122.546,3.755-14.2-18.646-41.18-18.646-56.386,0-22.039-40.279-61.836-48.46-82.415-13.825-7.526-25-13.508-32.893-18.306-.734,3.344-67.234,66.724-64.722,70.315,2.175,3.109-75.76,78.309-71.539,81.259C134.475,156.575-6.758,292.344,1.913,295.737m-1.238.9c-.033-.014-.644-.323-.674-.337s.422-.457.392-.468c-8.728-3.437,133.1-139.819,127.4-143.843-4.138-2.922,72.572-76.957,70.416-80.038-2.591-3.7,65.8-68.907,66.845-71.953,8.063,4.76,19.486,10.769,33.6,18.4.022.052.14.069.162.121s.134.151.153.2c8.172,20.628,48.887,60.688,48.887,82.774,0,15.3,22.8,42.569,19.012,56.857-9.452,35.7,31.252,98.228,2.993,123.335-.745.663-2.391,1.369-3.147,2.021a318.1,318.1,0,0,1-45.17,23.805c-46.162,19.892-99.7,30.6-156.2,28.9C106.019,333.62,49.02,319.742.675,296.638" transform="translate(111.05 422.602)" fill="#0a9ce8"/>
        <path id="Path_31111" data-name="Path 31111" d="M10.648,52.5c-26.5,23.531,21.349,87,12.494,120.464-3.536,13.368,21.694,40.829,21.694,55.14,0,20.743,44.034,61.255,51.732,80.624,14.609,6.472,26.084,11.286,33.711,14.872.813-3.717,63.249-63.964,60.458-67.951-2.418-3.456,70.375-74.755,65.689-78.03C250.107,173.2,381.775,44.776,372.143,41,324.382,18.531,267.9,4.809,208.957,1.712,134.035-.778,64.342,18.741,10.648,52.5M8.033,51.481c.7-.622,2.4-1.3,3.111-1.909C65.1,16.668,134.564-2.876,209.028.345c59.387,2.569,116.244,16.986,164.32,39.742.036.016.616.312.652.326s-.386.436-.351.449c9.7,3.818-122.527,132.824-116.192,137.3,4.6,3.245-67.05,73.44-64.657,76.861,2.876,4.114-61.332,66.1-62.444,69.559-7.8-3.519-19.525-8.337-34.448-14.893-.019-.049-.145-.06-.167-.11s-.142-.148-.162-.2c-7.69-19.415-52.209-60.214-52.209-81,0-14.395-25.67-42.169-22.11-55.616,8.9-33.6-39.824-97.653-13.228-121.281" transform="translate(543.581 199.894)" fill="#0a9ce8"/>
        <path id="Path_31112" data-name="Path 31112" d="M2.012,283.577c47.764,22.474,104.213,36.762,163.186,39.29,74.894,3.213,144.618-17.03,198.308-50.782,26.5-23.534-21.346-87-12.494-120.467,3.536-13.365-21.691-40.827-21.691-55.137,0-20.743-44.034-61.258-51.732-80.626C262.981,9.386,251.505,4.571,243.878.983c-.816,3.716-63.249,63.967-60.461,67.954,2.418,3.456-70.375,74.752-65.686,78.03C124.049,151.382-7.62,279.806,2.012,283.577m-1.205.915c-.036-.014-.616-.31-.652-.323s.389-.435.353-.449c-9.7-3.818,122.524-132.824,116.192-137.3-4.6-3.245,67.05-73.44,64.657-76.863C178.479,65.446,242.687,3.459,243.8,0c7.8,3.519,19.525,8.337,34.445,14.9.019.049.148.058.167.107s.142.151.162.2c7.69,19.412,52.212,60.214,52.212,81,0,14.4,25.668,42.169,22.107,55.613-8.9,33.6,39.827,97.653,13.231,121.281-.7.624-2.4,1.3-3.114,1.912a318.589,318.589,0,0,1-44.573,22.458c-45.466,18.722-97.993,28.653-153.31,26.766-59.36-3.108-116.244-16.986-164.32-39.742" transform="translate(123.231 420.08)" fill="#0a9ce8"/>
        <path id="Path_31113" data-name="Path 31113" d="M9.162,48.987C-15.684,71.051,40.088,136,31.787,167.376c-3.314,12.53,24.742,40.476,24.742,53.891,0,19.445,47.789,60.677,55.005,78.835,15.392,5.415,27.163,9.063,34.528,11.434.9-4.086,59.267-61.2,56.2-65.591-2.662-3.8,64.991-71.2,59.834-74.8-6.951-4.856,115.154-125.934,104.558-130.08C319.149,18.927,262.774,5.2,203.781,1.793,130.541-.949,62.2,17.209,9.162,48.987m-2.78-1.019c.657-.583,2.413-1.224,3.078-1.8C62.79,15.174,130.988-3.068,203.858.426c59.423,2.851,116.162,17.3,163.97,39.707.038.014.589.3.63.309s-.353.414-.315.43c10.668,4.2-111.95,125.83-104.982,130.749,5.056,3.574-61.532,69.926-58.9,73.692,3.163,4.524-56.862,63.3-58.045,67.165-7.534-2.279-19.563-5.9-35.289-11.391-.016-.047-.156-.049-.173-.1s-.151-.148-.17-.194c-7.208-18.2-55.534-59.738-55.534-79.227,0-13.5-28.541-41.769-25.2-54.375,8.342-31.5-48.4-97.075-23.466-119.226" transform="translate(549.458 219.836)" fill="#0a9ce8"/>
        <path id="Path_31114" data-name="Path 31114" d="M2.148,271.414C49.654,293.551,106,307.875,165.022,310.685c73.207,3.484,141.58-15.419,194.616-47.2,24.846-22.063-30.923-87.011-22.625-118.386,3.317-12.53-24.739-40.473-24.739-53.891,0-19.445-47.789-60.677-55.008-78.835C241.874,6.962,230.106,3.314,222.739.939c-.9,4.089-59.267,61.206-56.2,65.593,2.659,3.8-64.991,71.2-59.834,74.8C113.657,146.19-8.448,267.265,2.148,271.414m-1.175.931c-.038-.016-.589-.3-.627-.31s.351-.413.312-.427c-10.665-4.2,111.95-125.832,104.982-130.751-5.056-3.571,61.532-69.926,58.9-73.692C161.374,62.641,221.4,3.87,222.583,0c7.537,2.279,19.566,5.9,35.289,11.391.019.047.156.047.175.093s.148.151.167.2c7.211,18.2,55.534,59.738,55.534,79.227,0,13.5,28.543,41.769,25.2,54.375-8.342,31.5,48.4,97.073,23.466,119.226-.657.583-2.413,1.222-3.078,1.8a319.813,319.813,0,0,1-43.979,21.11c-44.768,17.553-96.284,26.706-150.416,24.63-59.4-3.418-116.162-17.3-163.972-39.7" transform="translate(135.382 417.557)" fill="#0a9ce8"/>
        <path id="Path_31115" data-name="Path 31115" d="M8.021,45.493C-15.17,66.086,48.522,132.514,40.774,161.8c-3.095,11.694,27.79,40.123,27.79,52.644,0,18.15,51.543,60.1,58.278,77.044,16.178,4.357,28.239,6.839,35.346,8,.978-4.459,55.282-58.448,51.935-63.233-2.9-4.146,59.609-67.639,53.981-71.569-7.581-5.3,104.96-119.029,93.4-123.557C314.262,19.335,257.986,5.6,198.946,1.884,127.39-1.1,60.4,15.69,8.021,45.493M5.075,44.469c.613-.545,2.424-1.153,3.046-1.69C60.822,13.693,127.755-3.243,199.028.52,258.489,3.658,315.111,18.13,362.65,40.188c.044.016.561.279.605.3s-.318.389-.274.405c11.634,4.582-101.375,118.84-93.775,124.206,5.516,3.9-56.01,66.412-53.137,70.518,3.451,4.935-52.4,60.491-53.644,64.772a331.4,331.4,0,0,1-36.132-7.885c-.016-.044-.164-.038-.181-.079s-.159-.151-.175-.192c-6.729-16.989-58.856-59.267-58.856-77.455,0-12.6-31.416-41.369-28.3-53.135,7.786-29.4-56.974-96.5-33.7-117.172" transform="translate(554.991 239.768)" fill="#0a9ce8"/>
        <path id="Path_31116" data-name="Path 31116" d="M2.317,259.251c47.246,21.8,103.484,36.157,162.562,39.252C236.4,302.247,303.425,284.7,355.8,254.894c23.192-20.593-40.5-87.021-32.753-116.307,3.095-11.695-27.79-40.12-27.79-52.642,0-18.152-51.541-60.1-58.278-77.047C220.8,4.541,208.741,2.059,201.634.9c-.978,4.459-55.285,58.448-51.935,63.233,2.9,4.147-59.609,67.639-53.981,71.569C103.3,141-9.243,254.727,2.317,259.251m-1.145.948c-.044-.016-.561-.279-.605-.3s.318-.389.274-.408c-11.634-4.582,101.375-118.838,93.775-124.206-5.516-3.9,56.01-66.412,53.137-70.518C144.3,59.834,200.149,4.281,201.4,0a330.564,330.564,0,0,1,36.133,7.885c.016.044.164.038.181.082s.159.148.175.189c6.729,16.989,58.859,59.267,58.859,77.455,0,12.6,31.414,41.372,28.3,53.135-7.786,29.4,56.975,96.5,33.7,117.172-.614.545-2.424,1.15-3.046,1.69a322.16,322.16,0,0,1-43.385,19.766c-44.067,16.381-94.578,24.758-147.523,22.493-59.426-3.73-116.08-17.61-163.622-39.668" transform="translate(147.498 415.035)" fill="#0a9ce8"/>
        <path id="Path_31117" data-name="Path 31117" d="M7.136,42.012C-14.4,61.134,57.215,129.044,50.02,156.237c-2.873,10.859,30.838,39.77,30.838,51.4,0,16.852,55.3,59.519,61.551,75.256,16.961,3.3,29.319,4.615,36.165,4.566,1.06-4.831,51.3-55.687,47.674-60.869-3.144-4.494,54.222-64.084,48.128-68.343C266.16,152.5,369.14,46.123,356.619,41.217,309.63,19.757,253.455,6.016,194.369,1.99,124.5-1.247,58.855,14.183,7.136,42.012m-3.111-1.03c.57-.507,2.435-1.079,3.013-1.578C59.113,12.225,124.78-3.394,194.459.626c59.494,3.432,116,17.92,163.271,39.63.047.019.534.266.581.285s-.279.367-.233.386c12.6,4.963-90.8,111.846-82.571,117.66,5.979,4.22-50.486,62.9-47.375,67.346,3.741,5.346-47.926,57.684-49.246,62.378-7.006.2-19.642-1.043-36.973-4.382-.016-.041-.173-.027-.189-.066s-.164-.148-.181-.189c-6.247-15.773-62.181-58.79-62.181-75.68,0-11.7-34.289-40.972-31.4-51.894C55.2,128.8-17.584,60.181,4.025,40.982" transform="translate(560.267 259.688)" fill="#0a9ce8"/>
        <path id="Path_31118" data-name="Path 31118" d="M2.527,247.115c46.989,21.461,103.123,35.842,162.25,39.227,69.833,4,135.514-12.193,187.233-40.022,21.535-19.119-50.078-87.032-42.884-114.226,2.873-10.859-30.839-39.77-30.839-51.4,0-16.854-55.3-59.519-61.554-75.256C199.775,2.141,187.418.826,180.571.876c-1.06,4.831-51.3,55.687-47.674,60.872,3.144,4.492-54.222,64.082-48.128,68.34C92.985,135.828-10,242.213,2.527,247.115m-1.112.961c-.047-.019-.534-.266-.581-.282s.279-.367.233-.386c-12.6-4.965,90.8-111.848,82.568-117.663-5.976-4.22,50.489-62.9,47.378-67.343C127.272,57.053,178.938,4.715,180.258.021c7.006-.2,19.642,1.043,36.973,4.382.014.041.173.027.186.068s.167.148.183.186c6.247,15.775,62.181,58.793,62.181,75.683,0,11.7,34.289,40.969,31.394,51.894-7.228,27.3,65.552,95.917,43.943,115.116-.57.507-2.435,1.079-3.013,1.578a324.87,324.87,0,0,1-42.788,18.421c-43.371,15.211-92.874,22.811-144.634,20.357-59.459-4.04-116-17.92-163.271-39.63" transform="translate(159.57 412.489)" fill="#0a9ce8"/>
        <path id="Path_31119" data-name="Path 31119" d="M6.451,38.549C-13.427,56.2,66.107,125.592,59.466,150.693c-2.651,10.024,33.887,39.419,33.887,50.149,0,15.559,59.05,58.941,64.827,73.467,17.744,2.246,30.395,2.394,36.981,1.131,1.139-5.2,47.315-52.927,43.409-58.508-3.385-4.839,48.84-60.527,42.276-65.111C272,145.64,365.415,46.6,351.93,41.32,305.2,20.2,249.128,6.451,189.992,2.112,121.8-1.374,57.513,12.695,6.451,38.549M3.176,37.514c.526-.468,2.446-1.008,2.98-1.468C57.6,10.775,122.005-3.521,190.088.748c59.532,3.736,115.918,18.235,162.921,39.6.052.019.509.249.559.268s-.244.345-.194.364c13.576,5.346-80.227,104.856-71.361,111.117,6.439,4.546-44.968,59.382-41.616,64.172,4.029,5.76-43.459,54.879-44.845,59.984-6.743,1.443-19.681,1.391-37.817-.876-.014-.036-.181-.016-.194-.052s-.175-.148-.189-.184c-5.768-14.559-65.506-58.316-65.506-73.908,0-10.8-37.162-40.572-34.489-50.656,6.672-25.2-74.127-95.339-54.181-113.062" transform="translate(565.342 279.586)" fill="#0a9ce8"/>
        <path id="Path_31120" data-name="Path 31120" d="M2.792,235.905C49.52,257.032,105.55,271.43,164.729,275.114c68.146,4.242,132.477-10.583,183.541-36.434,19.875-17.651-59.656-87.043-53.014-112.144,2.651-10.024-33.887-39.419-33.887-50.149,0-15.559-59.053-58.941-64.827-73.467C178.8.673,166.148.525,159.561,1.785c-1.142,5.2-47.318,52.929-43.412,58.511,3.385,4.839-48.838,60.524-42.273,65.111,8.846,6.181-84.57,105.218-71.085,110.5m-1.082.978c-.049-.019-.509-.249-.559-.271s.246-.342.194-.362C-12.228,230.9,81.575,131.394,72.707,125.134c-6.436-4.546,44.968-59.382,41.618-64.172C110.3,55.2,157.784,6.082,159.169.975c6.743-1.443,19.681-1.389,37.814.876.016.038.181.019.2.055s.173.145.186.184C203.138,16.648,262.875,60.406,262.875,76c0,10.8,37.16,40.569,34.489,50.653-6.672,25.2,74.127,95.342,54.181,113.062-.526.468-2.448,1.008-2.982,1.468a328.492,328.492,0,0,1-42.191,17.073C263.7,272.3,215.207,279.118,164.63,276.478,105.142,272.126,48.715,258.246,1.71,236.883" transform="translate(171.591 409.013)" fill="#0a9ce8"/>
        <path id="Path_31121" data-name="Path 31121" d="M5.925,35.1C-12.3,51.28,75.155,122.156,69.07,145.164,66.638,154.353,106,184.23,106,194.068c0,14.261,62.805,58.363,68.1,71.679,18.528,1.189,31.474.167,37.8-2.306,1.221-5.573,43.33-50.166,39.148-56.147-3.629-5.184,43.453-56.966,36.42-61.882C278,138.788,361.849,47.1,347.4,41.439,300.928,20.652,244.956,6.9,185.774,2.253,119.268-1.483,56.329,11.222,5.925,35.1m-3.44-1.038c.482-.427,2.459-.937,2.947-1.358C56.252,9.344,119.386-3.622,185.878.889c59.568,4.042,115.833,18.544,162.57,39.559.055.022.482.236.537.257s-.211.32-.156.342c14.543,5.729-69.652,97.861-60.154,104.571,6.9,4.869-39.446,55.868-35.856,61,4.316,6.168-38.989,52.072-40.446,57.591-6.477,2.681-19.719,3.821-38.658,2.626-.014-.033-.189-.005-.2-.038s-.181-.145-.194-.181c-5.289-13.346-68.828-57.843-68.828-72.133,0-9.9-40.035-40.172-37.587-49.415C73.019,121.97-15.8,50.3,2.485,34.061" transform="translate(570.259 299.471)" fill="#0a9ce8"/>
        <path id="Path_31122" data-name="Path 31122" d="M3.12,225.868c46.474,20.79,102.4,35.2,161.628,39.189,66.459,4.475,129.442-8.972,179.846-32.849,18.221-16.178-69.23-87.054-63.142-110.063,2.429-9.189-36.935-39.066-36.935-48.9,0-14.261-62.808-58.36-68.1-71.679-18.528-1.186-31.474-.167-37.8,2.3C137.4,9.44,95.285,54.035,99.47,60.016,103.1,65.2,56.014,116.983,63.047,121.9c9.479,6.622-74.374,98.313-59.927,103.969m-1.049.994c-.055-.022-.482-.236-.534-.257s.208-.32.156-.342c-14.546-5.727,69.652-97.861,60.151-104.571-6.9-4.87,39.449-55.865,35.859-61C93.387,54.52,136.693,8.618,138.147,3.1,144.627.415,157.869-.721,176.8.473c.014.033.189.006.2.038s.181.145.194.181c5.289,13.346,68.831,57.843,68.831,72.134,0,9.9,40.035,40.172,37.587,49.416-6.116,23.1,82.7,94.761,64.416,111.007-.482.427-2.457.934-2.947,1.356a333.986,333.986,0,0,1-41.6,15.729c-41.974,12.872-89.459,18.917-138.847,16.085C105.12,261.756,48.811,247.876,2.072,226.862" transform="translate(183.545 404.365)" fill="#0a9ce8"/>
        <path id="Path_31123" data-name="Path 31123" d="M5.526,31.674C-11.038,46.384,84.334,118.742,78.8,139.658c-2.21,8.353,39.98,38.715,39.98,47.657,0,12.965,66.563,57.782,71.375,69.888,19.314.134,32.553-2.054,38.617-5.738,1.3-5.946,39.351-47.408,34.886-53.789-3.867-5.529,38.072-53.409,30.57-58.651C284.118,131.959,358.407,47.616,343,41.58,296.785,21.13,240.911,7.373,181.683,2.416,116.862-1.569,55.273,9.775,5.526,31.674m-3.6-1.043c.438-.389,2.47-.863,2.914-1.246C55.029,7.932,116.9-3.692,181.8,1.052c59.6,4.355,115.751,18.856,162.22,39.52.058.022.455.222.512.244s-.172.3-.118.323c15.515,6.11-59.078,90.869-48.945,98.026,7.356,5.2-33.928,52.351-30.1,57.826,4.6,6.581-34.522,49.268-36.045,55.2-6.217,3.922-19.76,6.25-39.5,6.132-.011-.033-.2,0-.211-.027s-.189-.145-.2-.175c-4.806-12.133-72.153-57.369-72.153-70.361,0-9-42.908-39.772-40.682-48.175,5.56-21-91.277-94.186-74.656-108.953" transform="translate(575.048 319.331)" fill="#0a9ce8"/>
        <path id="Path_31124" data-name="Path 31124" d="M3.545,216.745c46.214,20.45,102.033,34.862,161.316,39.164,64.769,4.7,126.408-7.359,176.154-29.258,16.561-14.71-78.811-87.068-73.278-107.984,2.21-8.353-39.98-38.712-39.98-47.654,0-12.965-66.56-57.785-71.372-69.891-19.314-.131-32.553,2.054-38.619,5.74-1.3,5.943-39.351,47.408-34.884,53.787,3.864,5.53-38.072,53.409-30.57,58.651,10.112,7.066-64.177,91.409-48.766,97.445m-1.019,1.008c-.06-.022-.457-.222-.512-.244s.17-.3.118-.32c-15.515-6.11,59.078-90.872,48.942-98.026C43.72,113.967,85,66.808,81.17,61.334c-4.6-6.581,34.522-49.268,36.045-55.2,6.217-3.925,19.763-6.253,39.5-6.132.016.03.2-.006.211.027s.189.142.2.173c4.8,12.135,72.153,57.372,72.153,70.364,0,9,42.905,39.77,40.684,48.172-5.565,21,91.277,94.186,74.65,108.953-.438.389-2.468.863-2.911,1.246a340.727,340.727,0,0,1-41,14.381c-41.279,11.7-87.756,16.969-135.958,13.951C105.192,252.3,49,238.419,2.526,217.752" transform="translate(195.407 398.806)" fill="#0a9ce8"/>
        <path id="Path_31125" data-name="Path 31125" d="M5.231,28.276c-14.907,13.236,88.383,87.079,83.406,105.9-1.988,7.518,43.029,38.362,43.029,46.411,0,11.667,70.315,57.2,74.645,68.1,20.1-.923,33.632-4.275,39.438-9.172,1.386-6.316,35.363-44.65,30.625-51.428-4.111-5.875,32.682-49.851,24.712-55.422-10.741-7.507,53.987-84.5,37.611-90.916C292.741,21.635,236.972,7.87,177.7,2.6,114.555-1.631,54.321,8.352,5.231,28.276M1.463,27.227c.392-.351,2.481-.792,2.881-1.137C53.907,6.547,114.508-3.726,177.814,1.242,237.454,5.92,293.481,20.408,339.686,40.727c.06.022.424.205.485.23s-.134.277-.074.3c16.482,6.494-48.506,83.88-37.737,91.483,7.816,5.519-28.406,48.838-24.339,54.655,4.894,6.992-30.055,46.46-31.644,52.8-5.951,5.162-19.8,8.682-40.345,9.638-.011-.027-.2.014-.214-.014s-.2-.142-.211-.17c-4.324-10.922-75.475-56.9-75.475-68.59,0-8.1-45.781-39.372-43.779-46.934,5.007-18.9-99.852-93.608-84.891-106.9" transform="translate(579.735 339.167)" fill="#0a9ce8"/>
        <path id="Path_31126" data-name="Path 31126" d="M4.094,208.083c45.954,20.113,101.671,34.519,161,39.145,63.087,4.919,123.373-5.749,172.465-25.673,14.907-13.236-88.385-87.076-83.406-105.9,1.991-7.518-43.029-38.359-43.029-46.408,0-11.667-70.318-57.2-74.648-68.1-20.1.923-33.629,4.278-39.435,9.175-1.386,6.316-35.366,44.647-30.625,51.426C70.528,67.623,33.73,111.6,41.7,117.167c10.741,7.507-53.984,84.5-37.609,90.916m-.989,1.024c-.06-.025-.427-.205-.488-.23s.137-.277.077-.3C-13.79,202.085,51.2,124.7,40.432,117.1c-7.816-5.519,28.406-48.838,24.337-54.655C59.877,55.449,94.823,15.978,96.415,9.635,102.366,4.472,116.213.953,136.757,0c.011.027.205-.014.216.014s.2.142.208.17c4.327,10.919,75.478,56.9,75.478,68.59,0,8.1,45.781,39.37,43.779,46.934-5.007,18.9,99.85,93.605,84.891,106.9-.394.351-2.481.792-2.881,1.137a348.9,348.9,0,0,1-40.4,13.034C257.465,247.307,212,251.8,164.977,248.592,105.39,243.309,49.308,229.423,3.105,209.107" transform="translate(207.141 392.785)" fill="#0a9ce8"/>
        <path id="Path_31127" data-name="Path 31127" d="M5.025,24.913C-8.228,36.679,102.985,112,98.559,128.734c-1.769,6.685,46.077,38.009,46.077,45.165,0,10.372,74.073,56.624,77.923,66.308,20.88-1.98,34.706-6.5,40.252-12.609,1.465-6.688,31.384-41.889,26.361-49.065-4.352-6.222,27.3-46.3,18.865-52.193-11.377-7.948,43.787-77.6,26.448-84.389C288.788,22.174,233.12,8.4,173.8,2.828,112.341-1.656,53.458,6.963,5.025,24.913M1.09,23.859c.351-.312,2.492-.72,2.848-1.027C52.88,5.2,112.209-3.718,173.922,1.464c59.672,5.012,115.587,19.481,161.521,39.449.063.025.4.192.463.216s-.1.255-.036.279c17.451,6.874-37.932,76.885-26.53,84.937,8.277,5.844-22.885,45.321-18.577,51.48,5.179,7.4-25.586,43.659-27.245,50.412-5.689,6.4-19.837,11.114-41.186,13.141-.011-.025-.214.025-.225,0s-.205-.142-.214-.167c-3.845-9.706-78.8-56.421-78.8-66.815,0-7.2-48.654-38.973-46.874-45.7C100.668,111.9-12.207,35.674,1.09,23.859" transform="translate(584.335 358.968)" fill="#0a9ce8"/>
        <path id="Path_31128" data-name="Path 31128" d="M4.815,199.433c45.7,19.777,101.312,34.169,160.691,39.126,61.4,5.124,120.339-4.138,168.771-22.085,13.253-11.766-97.96-87.09-93.534-103.824,1.769-6.683-46.077-38.006-46.077-45.159,0-10.372-74.073-56.627-77.923-66.311-20.878,1.98-34.706,6.5-40.252,12.609C75.023,20.477,45.107,55.678,50.13,62.856c4.349,6.22-27.3,46.293-18.865,52.19,11.374,7.948-43.79,77.6-26.451,84.387m-.956,1.041c-.063-.025-.4-.192-.466-.216s.1-.255.038-.279c-17.454-6.872,37.929-76.885,26.53-84.934C21.685,109.2,52.847,69.72,48.539,63.56,43.36,56.154,74.125,19.9,75.784,13.148,81.473,6.744,95.624,2.034,116.97.007c.008.025.214-.025.225,0s.2.142.214.167c3.845,9.706,78.8,56.421,78.8,66.815,0,7.2,48.651,38.973,46.871,45.693-4.448,16.8,108.428,93.03,95.131,104.843-.351.312-2.492.72-2.848,1.027a360.136,360.136,0,0,1-39.811,11.689c-39.879,9.361-84.34,13.075-130.173,9.679-59.62-5.593-115.587-19.478-161.521-39.446" transform="translate(218.704 386.75)" fill="#0a9ce8"/>
        <path id="Path_31129" data-name="Path 31129" d="M4.89,21.588c-11.6,10.3,107.537,87.1,103.665,101.745-1.547,5.847,49.125,37.655,49.125,43.916,0,9.074,77.827,56.043,81.2,64.517,21.664-3.035,35.785-8.723,41.071-16.041,1.547-7.06,27.4-39.131,22.1-46.707-4.6-6.568,21.918-42.738,13.009-48.964-12.007-8.389,33.594-70.693,15.29-77.86-45.436-19.44-101.006-33.216-160.376-39.1C110.2-1.639,52.664,5.616,4.89,21.588M.79,20.531c.307-.274,2.5-.646,2.815-.915C51.92,3.888,109.979-3.66,170.1,1.73c59.7,5.354,115.5,19.79,161.171,39.411.068.027.375.178.444.2s-.066.233,0,.26c18.424,7.255-27.355,69.893-15.321,78.389,8.734,6.17-17.367,41.81-12.817,48.312,5.467,7.814-21.119,40.851-22.844,48.016-5.425,7.644-19.878,13.546-42.029,16.646-.008-.022-.222.036-.23.014s-.214-.14-.222-.161c-3.366-8.493-82.125-55.947-82.125-65.043,0-6.3-51.527-38.573-49.969-44.456C110.05,108.621-10.847,30.87.79,20.531" transform="translate(588.86 378.725)" fill="#0a9ce8"/>
        <path id="Path_31130" data-name="Path 31130" d="M5.8,190.789c45.439,19.44,100.954,33.8,160.379,39.1,59.719,5.324,117.3-2.525,165.079-18.5,11.593-10.3-107.537-87.1-103.665-101.74,1.547-5.85-49.125-37.655-49.125-43.916,0-9.076-77.827-56.046-81.2-64.52C75.607,4.252,61.486,9.94,56.2,17.261c-1.547,7.058-27.4,39.131-22.1,46.707,4.593,6.565-21.918,42.736-13.009,48.961,12,8.389-33.6,70.693-15.293,77.86m-.926,1.054c-.068-.027-.372-.175-.441-.2s.066-.23,0-.257c-18.424-7.255,27.355-69.893,15.323-78.392-8.737-6.17,17.364-41.807,12.817-48.309C27.1,56.866,53.686,23.831,55.414,16.664,60.84,9.017,75.292,3.118,97.443.018c.008.022.222-.033.23-.014s.214.142.222.164c3.363,8.493,82.125,55.947,82.125,65.04,0,6.3,51.527,38.573,49.969,44.456-3.892,14.7,117,92.45,105.368,102.788-.307.271-2.506.646-2.815.915a373.668,373.668,0,0,1-39.214,10.341c-39.183,8.192-82.637,11.128-127.284,7.545-59.653-5.9-115.5-19.79-161.171-39.411" transform="translate(230.006 380.711)" fill="#0a9ce8"/>
        <path id="Path_31131" data-name="Path 31131" d="M4.815,18.322c-9.939,8.824,117.115,87.112,113.8,99.664-1.328,5.012,52.173,37.3,52.173,42.667,0,7.781,81.582,55.468,84.469,62.731,22.45-4.092,36.864-10.947,41.889-19.478,1.627-7.43,23.414-36.371,17.835-44.346-4.837-6.913,16.534-39.181,7.156-45.732-12.637-8.832,23.4-63.791,4.133-71.334C281.087,23.391,225.619,9.61,166.2,3.412,108.115-1.57,51.932,4.324,4.815,18.322M.551,17.259c.263-.233,2.514-.575,2.783-.805C51.02,2.637,107.809-3.539,166.341,2.051c59.735,5.7,115.422,20.1,160.82,39.372.071.03.348.162.419.192s-.03.208.041.235c19.393,7.638-16.78,62.9-4.114,71.846,9.194,6.494-11.845,38.293-7.058,45.138C322.2,167.061,299.8,196.881,298,204.459c-5.16,8.885-19.916,15.975-42.87,20.149-.008-.016-.23.047-.238.027s-.222-.14-.227-.159C251.785,217.2,169.22,169,169.22,161.208c0-5.4-54.4-38.173-53.064-43.215C119.492,105.393-9.424,26.119.551,17.259" transform="translate(593.325 398.43)" fill="#0a9ce8"/>
        <path id="Path_31132" data-name="Path 31132" d="M7.2,182.142c45.179,19.1,100.592,33.432,160.067,39.082,58.037,5.516,114.267-.915,161.384-14.91,9.939-8.824-117.112-87.112-113.793-99.661,1.326-5.012-52.173-37.3-52.173-42.67,0-7.778-81.582-55.465-84.472-62.729C55.764,5.347,41.35,12.2,36.324,20.733c-1.63,7.43-23.416,36.371-17.838,44.346,4.837,6.91-16.534,39.178-7.156,45.732,12.637,8.83-23.4,63.789-4.133,71.331m-.9,1.071c-.071-.027-.348-.162-.419-.189s.03-.208-.041-.238c-19.39-7.636,16.783-62.9,4.116-71.846-9.2-6.494,11.842-38.291,7.055-45.135-5.754-8.23,16.652-38.047,18.446-45.625C40.621,11.293,55.377,4.2,78.331.028c.005.019.23-.044.236-.025s.222.14.23.156c2.884,7.282,85.449,55.476,85.449,63.271,0,5.4,54.4,38.173,53.064,43.215-3.336,12.6,125.578,91.872,115.6,100.732-.263.233-2.514.575-2.78.805a390.233,390.233,0,0,1-38.619,8.994,471.389,471.389,0,0,1-124.389,5.409C107.439,216.371,51.7,202.486,6.3,183.213" transform="translate(240.891 374.673)" fill="#0a9ce8"/>
        <path id="Path_31133" data-name="Path 31133" d="M4.792,15.13c-8.282,7.354,126.692,87.123,123.923,97.582-1.1,4.177,55.224,36.951,55.224,41.421,0,6.483,85.337,54.887,87.742,60.94,23.233-5.146,37.943-13.168,42.706-22.913,1.712-7.8,19.434-33.61,13.576-41.985-5.078-7.258,11.15-35.62,1.3-42.5-13.272-9.271,13.2-56.884-7.028-64.8C277.321,24.1,221.951,10.312,162.487,3.808c-56.4-5.231-111.235-.7-157.7,11.322M.364,14.062c.219-.195,2.528-.5,2.75-.7C50.174,1.458,105.691-3.335,162.633,2.447,222.4,8.513,277.973,22.859,323.1,41.783c.074.027.32.145.394.175s.005.186.082.216c20.36,8.019-6.209,55.909,7.091,65.3,9.657,6.82-6.321,34.78-1.3,41.966,6.042,8.635-12.182,35.24-14.044,43.229-4.9,10.125-19.955,18.41-43.713,23.655-.005-.014-.241.057-.246.041s-.227-.14-.233-.153c-2.4-6.066-88.772-55-88.772-61.5,0-4.5-57.276-37.773-56.161-41.974,2.78-10.5-134.155-91.3-125.843-98.68" transform="translate(597.738 418.057)" fill="#0a9ce8"/>
        <path id="Path_31134" data-name="Path 31134" d="M11.6,173.5c44.921,18.766,100.239,33.049,159.755,39.063,56.358,5.694,111.235.7,157.7-11.322,8.282-7.356-126.692-87.123-123.924-97.582,1.1-4.177-55.222-36.949-55.222-41.421,0-6.483-85.34-54.888-87.744-60.94-23.23,5.146-37.94,13.168-42.706,22.913C17.741,32.01.018,57.82,5.879,66.193c5.075,7.258-11.152,35.62-1.306,42.5,13.272,9.273-13.2,56.884,7.025,64.8m-.863,1.087c-.074-.03-.32-.148-.394-.175s-.005-.186-.082-.216c-20.36-8.019,6.209-55.909-7.091-65.3-9.657-6.82,6.324-34.78,1.3-41.966C-1.579,58.289,16.645,31.687,18.508,23.7,23.407,13.57,38.465,5.286,62.221.044c.008.014.241-.058.246-.041s.227.14.236.153c2.4,6.066,88.771,55,88.771,61.5,0,4.5,57.273,37.773,56.161,41.974-2.783,10.5,134.153,91.294,125.841,98.678-.219.194-2.525.5-2.75.7-12.152,3.062-24.868,5.625-38.022,7.649a497.527,497.527,0,0,1-121.5,3.273c-59.719-6.526-115.34-20.415-160.472-39.337" transform="translate(248.774 368.632)" fill="#0a9ce8"/>
        <path id="Path_31135" data-name="Path 31135" d="M4.815,12.042c-6.625,5.883,136.27,87.134,134.054,95.5-.882,3.341,58.27,36.6,58.27,40.175,0,5.187,89.095,54.31,91.017,59.152,24.019-6.2,39.019-15.395,43.524-26.347,1.794-8.175,15.449-30.855,9.312-39.627-5.319-7.6,5.765-32.063-4.549-39.271-13.9-9.714,3.01-49.98-18.183-58.278C273.6,24.917,218.332,11.121,158.818,4.3,104.1-1.173,50.618,2,4.815,12.042M.222,10.968c.175-.156,2.539-.43,2.717-.583,46.433-10,100.677-13.4,156.033-7.441,59.793,6.444,115.258,20.727,160.122,39.3.077.03.293.131.37.162s.044.164.121.194c21.332,8.4,4.368,48.92,18.3,58.757,10.117,7.143-.8,31.263,4.464,38.792,6.329,9.049-7.712,32.435-9.646,40.838-4.631,11.363-19.993,20.839-44.554,27.16-.005-.014-.249.066-.252.052s-.238-.137-.241-.151c-1.923-4.853-92.1-54.523-92.1-59.721,0-3.6-60.146-37.373-59.256-40.736C138.527,99.192-6.428,16.875.222,10.968" transform="translate(602.106 437.584)" fill="#0a9ce8"/>
        <path id="Path_31136" data-name="Path 31136" d="M25.715,164.853C70.378,183.282,125.6,197.5,185.157,203.894c54.679,5.869,108.2,2.309,154-7.734,6.625-5.883-136.27-87.134-134.054-95.5.882-3.341-58.27-36.6-58.27-40.175,0-5.184-89.095-54.307-91.017-59.149C31.8,7.538,16.8,16.727,12.295,27.682,10.5,35.854-3.155,58.534,2.983,67.306c5.319,7.6-5.765,32.063,4.549,39.271,13.9,9.714-3.01,49.98,18.183,58.275m-.833,1.1c-.079-.03-.293-.132-.372-.162s-.041-.164-.118-.195c-21.332-8.4-4.368-48.917-18.3-58.757-10.117-7.143.8-31.263-4.464-38.792C-4.7,59,9.34,35.616,11.273,27.213c4.634-11.366,20-20.842,44.554-27.158.005.011.249-.066.252-.055s.238.14.241.151c1.923,4.853,92.1,54.526,92.1,59.721,0,3.6,60.146,37.373,59.256,40.736-2.224,8.4,142.731,90.716,136.081,96.624-.175.153-2.539.43-2.717.583-11.993,2.572-24.512,4.683-37.425,6.3A530.029,530.029,0,0,1,185,205.255c-59.752-6.836-115.258-20.724-160.122-39.3" transform="translate(246.943 362.592)" fill="#0a9ce8"/>
        <path id="Path_31137" data-name="Path 31137" d="M4.877,9.1c-4.968,4.412,145.847,87.147,144.185,93.422-.663,2.506,61.318,36.245,61.318,38.929,0,3.889,92.85,53.729,94.293,57.361,24.8-7.26,40.1-17.616,44.341-29.781,1.873-8.545,11.464-28.094,5.05-37.264-5.562-7.951.381-28.508-10.4-36.045-14.532-10.155-7.186-43.075-29.34-51.749-44.4-18.092-99.57-31.893-159.13-39.019C102.152-.779,50.022,1.029,4.877,9.1M.119,8.021C.251,7.9,2.669,7.662,2.8,7.547,48.609-.546,101.577-2.548,155.35,3.589c59.817,6.83,115.173,21.036,159.768,39.263.082.033.268.118.351.151s.077.14.159.173c22.3,8.783,14.94,41.925,29.507,52.212,10.574,7.469,4.719,27.749,10.224,35.62,6.617,9.457-3.245,29.628-5.245,38.444-4.371,12.6-20.034,23.268-45.4,30.663-.006-.011-.258.077-.26.066l-.247-.145c-1.443-3.64-95.421-54.052-95.421-57.95,0-2.7-63.019-36.973-62.351-39.5C148.106,96.291-4.868,12.452.119,8.021" transform="translate(606.434 456.964)" fill="#0a9ce8"/>
        <path id="Path_31138" data-name="Path 31138" d="M43.3,156.211c44.4,18.092,99.529,32.235,159.13,39.019,53,6.034,105.163,3.919,150.309-4.146,4.971-4.415-145.845-87.147-144.185-93.422.663-2.506-61.315-36.242-61.315-38.926,0-3.889-92.85-53.729-94.293-57.361C28.145,8.633,12.846,18.988,8.6,31.156,6.727,39.7-2.866,59.25,3.55,68.42c5.56,7.948-.381,28.508,10.4,36.042,14.535,10.155,7.187,43.075,29.343,51.749m-.8,1.117c-.082-.033-.266-.118-.348-.151s-.077-.14-.159-.172c-22.3-8.781-14.943-41.925-29.507-52.209C1.9,97.327,7.76,77.047,2.255,69.176-4.365,59.713,5.5,39.548,7.5,30.732,11.871,18.125,27.534,7.458,52.9.069L53.158,0c0,.011.244.137.247.148C54.847,3.788,148.825,54.2,148.825,58.1c0,2.7,63.019,36.973,62.351,39.493-1.668,6.3,151.306,90.138,146.318,94.569-.132.115-2.55.359-2.684.474-11.834,2.082-24.153,3.741-36.831,4.954a572.055,572.055,0,0,1-115.715-1c-59.782-7.148-115.176-21.036-159.771-39.263" transform="translate(241.645 356.551)" fill="#0a9ce8"/>
        <path id="Path_31139" data-name="Path 31139" d="M4.975,6.375C1.661,9.316,160.394,93.533,159.288,97.715c-.441,1.671,64.366,35.894,64.366,37.683,0,2.594,96.6,53.151,97.566,55.572,25.583-8.318,41.175-19.84,45.159-33.218,1.956-8.918,7.482-25.334.786-34.9-5.8-8.3-5-24.95-16.255-32.813-15.167-10.6-17.383-36.171-40.5-45.222-44.146-17.755-99.212-31.564-158.818-39C100.24-.163,49.461.281,4.975,6.375M.051,5.293c.088-.077,2.561-.285,2.648-.362,45.181-6.184,96.87-6.784,149.06-.477C211.6,11.685,266.853,25.8,311.18,43.682c.085.033.241.1.326.134s.112.118.2.153C334.974,53.133,337.22,78.9,352.42,89.636c11.034,7.792,10.238,24.233,15.984,32.446,6.907,9.87,1.221,26.823-.846,36.05-4.106,13.844-20.07,25.7-46.239,34.169l-.268.079-.255-.142c-.961-2.427-98.741-53.576-98.741-56.175,0-1.8-65.895-36.576-65.448-38.255C157.719,93.607-3.274,8.245.051,5.293" transform="translate(610.729 476.121)" fill="#0a9ce8"/>
        <path id="Path_31140" data-name="Path 31140" d="M61.312,147.564c44.146,17.755,99.181,31.808,158.821,39,51.327,6.187,102.129,5.53,146.617-.561,3.314-2.941-155.422-87.156-154.316-91.34.444-1.671-64.364-35.891-64.364-37.68,0-2.591-96.6-53.151-97.566-55.572C24.922,9.728,9.331,21.25,5.346,34.629c-1.955,8.917-7.482,25.334-.789,34.9,5.8,8.3,5,24.95,16.257,32.813,15.165,10.6,17.38,36.168,40.5,45.22m-.77,1.134c-.085-.033-.238-.1-.323-.137s-.115-.118-.2-.151C36.748,139.247,34.5,113.478,19.3,102.745,8.268,94.953,9.065,78.512,3.319,70.3c-6.9-9.873-1.221-26.823.846-36.05C8.274,20.4,24.241,8.542,50.407.079L50.672,0l.255.142c.961,2.427,98.743,53.576,98.743,56.175,0,1.8,65.892,36.573,65.448,38.255-1.112,4.2,159.878,89.56,156.556,92.513-.088.079-2.561.288-2.651.364-11.678,1.591-23.794,2.8-36.237,3.61a627.348,627.348,0,0,1-112.823-3.136c-59.815-7.458-115.091-21.346-159.421-39.225" transform="translate(235.912 350.512)" fill="#0a9ce8"/>
        <path id="Path_31141" data-name="Path 31141" d="M5.1,3.992c-1.657,1.471,165,87.169,164.444,89.259-.219.835,67.415,35.541,67.415,36.436,0,1.3,100.357,52.57,100.839,53.781,26.369-9.372,42.254-22.061,45.973-36.653,2.038-9.287,3.5-22.573-3.47-32.542-6.047-8.641-10.391-21.393-22.11-29.584C342.393,73.652,330.611,55.426,306.529,46c-43.883-17.419-98.85-31.233-158.506-38.978C98.358.793,48.932-.127,5.1,3.992M.012,2.9c.044-.038,2.569-.214,2.615-.252C47.182-1.623,97.591-.807,148.2,5.66c59.861,7.647,115.011,21.658,159.073,39.189.09.036.211.088.3.123s.151.1.241.129c24.241,9.547,36.091,27.941,51.921,39.123,11.5,8.118,15.762,20.719,21.746,29.275,7.192,10.281,5.691,24.016,3.552,33.657-3.84,15.085-20.108,28.133-47.079,37.672l-.274.093-.266-.137c-.477-1.213-102.065-53.1-102.065-54.4,0-.9-68.768-36.176-68.54-37.014C167.359,91.265-1.65,4.381.012,2.9" transform="translate(614.996 494.942)" fill="#0a9ce8"/>
        <path id="Path_31142" data-name="Path 31142" d="M80.265,138.921C124.15,156.339,179.1,170.285,238.77,177.9c49.657,6.335,99.1,7.14,142.928,3.026,1.654-1.471-165-87.169-164.446-89.259.222-.835-67.412-35.541-67.412-36.434C149.84,53.937,49.481,2.662,49,1.452,22.633,10.824,6.748,23.515,3.023,38.1.986,47.394-.477,60.68,6.5,70.646c6.044,8.641,10.385,21.392,22.107,29.584,15.8,11.037,27.577,29.264,51.659,38.69m-.74,1.15c-.09-.036-.211-.088-.3-.123s-.148-.1-.238-.129c-24.241-9.547-36.091-27.941-51.924-39.123C15.567,92.581,11.3,79.977,5.318,71.424-1.874,61.14-.37,47.405,1.763,37.768,5.609,22.68,21.877,9.63,48.848.093L49.122,0l.26.137c.479,1.213,102.068,53.1,102.068,54.4,0,.9,68.765,36.174,68.543,37.014-.556,2.1,168.453,88.982,166.791,90.459-.044.041-2.572.216-2.616.255-11.519,1.1-23.438,1.857-35.639,2.262A702.1,702.1,0,0,1,238.6,179.26c-59.85-7.77-115.012-21.658-159.073-39.189" transform="translate(229.246 344.471)" fill="#0a9ce8"/>
        <path id="Path_31143" data-name="Path 31143" d="M5.253,2.148l174.574,87.18L354.4,176.509c27.152-10.429,43.333-24.285,46.794-40.087,2.12-9.66-.482-19.815-7.737-30.181C378.7,85.144,346.308,64.8,302.68,47.721s-98.491-30.9-158.194-38.959C96.5,2.288,48.427.007,5.253,2.148M354.327,178l-.268-.134-177.028-88.4L0,1.058,2.583.916C46.51-1.45,95.638.787,144.667,7.4c59.88,8.079,114.929,21.97,158.722,39.153s76.329,37.653,91.19,58.9c7.482,10.692,10.158,21.212,7.956,31.263-3.58,16.326-20.152,30.565-47.925,41.177Z" transform="translate(619.234 513.221)" fill="#0a9ce8"/>
        <path id="Path_31144" data-name="Path 31144" d="M48.879,1.493C21.729,11.919,5.551,25.777,2.084,41.577c-2.117,9.662.485,19.818,7.737,30.184,14.756,21.1,47.151,41.437,90.779,58.516s98.494,30.9,158.194,38.959c47.986,6.474,96.062,8.753,139.233,6.614L223.453,88.67ZM365.652,178a808.224,808.224,0,0,1-107.039-7.406c-59.88-8.079-114.929-21.97-158.722-39.151S23.561,93.789,8.7,72.547C1.221,61.852-1.457,51.335.747,41.284,4.327,24.956,20.9,10.717,48.673.107L48.952,0l.268.134,177.031,88.4,177.028,88.4-2.583.142c-11.363.614-23.08.917-35.045.917" transform="translate(221.194 338.432)" fill="#0a9ce8"/>
      </g>
    </g>
  </g>
</svg>
